<svg xmlns="http://www.w3.org/2000/svg" width="44" height="44" fill="none"><path fill="#fff" d="M9 17.392h7.495L23.5 12v20.785l-7.005-5.393H9a1 1 0 0 1-1-1v-8a1 1 0 0 1 1-1ZM35.252 22.853c0 3.382-.8 6.578-2.22 9.408l-.988-.265a19.915 19.915 0 0 0 2.208-9.143c0-3.316-.807-6.443-2.235-9.196l.988-.265a20.912 20.912 0 0 1 2.247 9.46ZM31.252 22.853c0 3.033-.794 5.88-2.186 8.345l-1-.268a15.926 15.926 0 0 0 2.186-8.077c0-2.968-.808-5.747-2.216-8.13l1-.267a16.922 16.922 0 0 1 2.216 8.397Z"/><path fill="#fff" d="M28.252 22.853c0 2.775-.807 5.361-2.2 7.537l-1.018-.272a12.94 12.94 0 0 0 2.218-7.265c0-2.713-.83-5.232-2.252-7.316l1.02-.273a13.934 13.934 0 0 1 2.232 7.589Z"/></svg>