<svg xmlns="http://www.w3.org/2000/svg" width="72" height="72" fill="none"><path fill="#fff" fill-rule="evenodd" d="M8 72h56a8 8 0 0 0 8-8V8a8 8 0 0 0-8-8H8a8 8 0 0 0-8 8v56a8 8 0 0 0 8 8" clip-rule="evenodd"/><path fill="#000" fill-rule="evenodd" d="m52.434 56.621 8.46-40.69c.217-1.049-.814-1.924-1.813-1.538L11.943 32.578c-1.163.448-1.153 2.095.014 2.532l11.485 4.287 4.446 14.297a1.352 1.352 0 0 0 2.147.646l6.403-5.219a1.91 1.91 0 0 1 2.328-.065l11.547 8.384a1.353 1.353 0 0 0 2.12-.819M49.619 23.29 27.172 37.115a2.26 2.26 0 0 0-.988 2.543l2.427 8.527c.173.605 1.05.543 1.134-.081l.63-4.677a3.84 3.84 0 0 1 1.19-2.298l18.526-17.22c.347-.321-.069-.867-.472-.62" clip-rule="evenodd"/></svg>