<svg xmlns="http://www.w3.org/2000/svg" width="44" height="44" fill="none"><path fill="#fff" d="M23.5 17.01V12l-7.005 5.392H9a1 1 0 0 0-1 1v8a1 1 0 0 0 1 1h4.118L23.5 17.01ZM16.355 27.392h.14l7.005 5.393V20.248l-7.145 7.144ZM26.147 17.6a12.955 12.955 0 0 1 1.105 5.253c0 2.69-.817 5.19-2.218 7.265l1.018.272a13.935 13.935 0 0 0 2.2-7.537c0-2.15-.485-4.187-1.35-6.007l-.755.754Z"/><path fill="#fff" d="M28.391 15.357a15.93 15.93 0 0 1 1.861 7.496c0 2.946-.796 5.706-2.185 8.077l1 .268a16.923 16.923 0 0 0 2.185-8.345c0-2.988-.77-5.795-2.123-8.234l-.738.738ZM33.032 32.26a20.913 20.913 0 0 0 2.22-9.407c0-3.404-.81-6.618-2.247-9.46l-.988.264a19.915 19.915 0 0 1 2.235 9.196c0 3.294-.797 6.403-2.208 9.143l.988.265ZM31.563 9.846a.51.51 0 0 1 .72.72L10.617 32.232a.51.51 0 0 1-.72-.72L31.563 9.846Z"/></svg>