<svg width="301" height="60" viewBox="0 0 301 60" fill="none" xmlns="http://www.w3.org/2000/svg">
<path d="M32 1L40.6522 21.0913L62.4338 23.1115L45.9995 37.5487L50.8091 58.8885L32 47.72L13.1909 58.8885L18.0005 37.5487L1.56619 23.1115L23.3478 21.0913L32 1Z" fill="#FFE500" stroke="#433C01" stroke-width="2" stroke-linejoin="round"/>
<path d="M111 1L119.652 21.0913L141.434 23.1115L125 37.5487L129.809 58.8885L111 47.72L92.1909 58.8885L97.0005 37.5487L80.5662 23.1115L102.348 21.0913L111 1Z" fill="#FFE500" stroke="#433C01" stroke-width="2" stroke-linejoin="round"/>
<path d="M190 1L198.652 21.0913L220.434 23.1115L204 37.5487L208.809 58.8885L190 47.72L171.191 58.8885L176 37.5487L159.566 23.1115L181.348 21.0913L190 1Z" fill="#FFE500" stroke="#433C01" stroke-width="2" stroke-linejoin="round"/>
<path d="M269 1L277.652 21.0913L299.434 23.1115L283 37.5487L287.809 58.8885L269 47.72L250.191 58.8885L255 37.5487L238.566 23.1115L260.348 21.0913L269 1Z" fill="#FFE500" stroke="#433C01" stroke-width="2" stroke-linejoin="round"/>
</svg>
